<svg xmlns="http://www.w3.org/2000/svg" xmlns:xlink="http://www.w3.org/1999/xlink" width="1000" zoomAndPan="magnify" viewBox="0 0 750 749.999995" height="1000" preserveAspectRatio="xMidYMid meet" version="1.0"><defs><clipPath id="f6644a5be2"><path d="M 62.5625 62.5625 L 687.378906 62.5625 L 687.378906 687.378906 L 62.5625 687.378906 Z M 62.5625 62.5625 " clip-rule="nonzero"/></clipPath><clipPath id="106f5c857a"><path d="M 375 62.5625 C 202.445312 62.5625 62.5625 202.445312 62.5625 375 C 62.5625 547.554688 202.445312 687.4375 375 687.4375 C 547.554688 687.4375 687.4375 547.554688 687.4375 375 C 687.4375 202.445312 547.554688 62.5625 375 62.5625 Z M 375 62.5625 " clip-rule="nonzero"/></clipPath><clipPath id="c6f81828a5"><path d="M 340.726562 167.132812 L 409.273438 167.132812 L 409.273438 235.679688 L 340.726562 235.679688 Z M 340.726562 167.132812 " clip-rule="nonzero"/></clipPath><clipPath id="7f96293dcf"><path d="M 375 167.132812 C 356.070312 167.132812 340.726562 182.480469 340.726562 201.40625 C 340.726562 220.335938 356.070312 235.679688 375 235.679688 C 393.929688 235.679688 409.273438 220.335938 409.273438 201.40625 C 409.273438 182.480469 393.929688 167.132812 375 167.132812 Z M 375 167.132812 " clip-rule="nonzero"/></clipPath><clipPath id="ba81e463f5"><path d="M 0.726562 0.132812 L 69.273438 0.132812 L 69.273438 68.679688 L 0.726562 68.679688 Z M 0.726562 0.132812 " clip-rule="nonzero"/></clipPath><clipPath id="c1f3b51059"><path d="M 35 0.132812 C 16.070312 0.132812 0.726562 15.480469 0.726562 34.40625 C 0.726562 53.335938 16.070312 68.679688 35 68.679688 C 53.929688 68.679688 69.273438 53.335938 69.273438 34.40625 C 69.273438 15.480469 53.929688 0.132812 35 0.132812 Z M 35 0.132812 " clip-rule="nonzero"/></clipPath><clipPath id="c77fe59959"><rect x="0" width="70" y="0" height="69"/></clipPath><clipPath id="2b8426b714"><path d="M 340.726562 514.257812 L 409.273438 514.257812 L 409.273438 582.800781 L 340.726562 582.800781 Z M 340.726562 514.257812 " clip-rule="nonzero"/></clipPath><clipPath id="04d6b2496f"><path d="M 375 514.257812 C 356.070312 514.257812 340.726562 529.601562 340.726562 548.53125 C 340.726562 567.457031 356.070312 582.800781 375 582.800781 C 393.929688 582.800781 409.273438 567.457031 409.273438 548.53125 C 409.273438 529.601562 393.929688 514.257812 375 514.257812 Z M 375 514.257812 " clip-rule="nonzero"/></clipPath><clipPath id="62228552f0"><path d="M 0.726562 0.257812 L 69.273438 0.257812 L 69.273438 68.800781 L 0.726562 68.800781 Z M 0.726562 0.257812 " clip-rule="nonzero"/></clipPath><clipPath id="6700100a58"><path d="M 35 0.257812 C 16.070312 0.257812 0.726562 15.601562 0.726562 34.53125 C 0.726562 53.457031 16.070312 68.800781 35 68.800781 C 53.929688 68.800781 69.273438 53.457031 69.273438 34.53125 C 69.273438 15.601562 53.929688 0.257812 35 0.257812 Z M 35 0.257812 " clip-rule="nonzero"/></clipPath><clipPath id="1dd8d576dd"><rect x="0" width="70" y="0" height="69"/></clipPath><clipPath id="8fd9b8b4f0"><rect x="0" width="750" y="0" height="750"/></clipPath></defs><g transform="matrix(1, 0, 0, 1, 0, -0.000000000000042435)"><g clip-path="url(#8fd9b8b4f0)"><g clip-path="url(#f6644a5be2)"><g clip-path="url(#106f5c857a)"><path stroke-linecap="butt" transform="matrix(0.642816, 0, 0, 0.642816, 62.560848, 62.560865)" fill="none" stroke-linejoin="miter" d="M 486.047935 0.00254357 C 217.612149 0.00254357 0.00257056 217.612122 0.00257056 486.047908 C 0.00257056 754.483694 217.612149 972.093272 486.047935 972.093272 C 754.483721 972.093272 972.093299 754.483694 972.093299 486.047908 C 972.093299 217.612122 754.483721 0.00254357 486.047935 0.00254357 Z M 486.047935 0.00254357 " stroke="#000000" stroke-width="116.674232" stroke-opacity="1" stroke-miterlimit="4"/></g></g><path stroke-linecap="butt" transform="matrix(0.454539, 0.454539, -0.454539, 0.454539, 238.679962, 215.953896)" fill="none" stroke-linejoin="miter" d="M -0.00115017 24.999017 L 649.815613 24.999017 " stroke="#000000" stroke-width="50" stroke-opacity="1" stroke-miterlimit="4"/><path stroke-linecap="butt" transform="matrix(0.454539, -0.454539, 0.454539, 0.454539, 215.953204, 513.790243)" fill="none" stroke-linejoin="miter" d="M 0.00121149 24.998178 L 655.249299 24.998178 " stroke="#000000" stroke-width="50" stroke-opacity="1" stroke-miterlimit="4"/><g clip-path="url(#c6f81828a5)"><g clip-path="url(#7f96293dcf)"><g transform="matrix(1, 0, 0, 1, 340, 167)"><g clip-path="url(#c77fe59959)"><g clip-path="url(#ba81e463f5)"><g clip-path="url(#c1f3b51059)"><path fill="#000000" d="M 0.726562 0.132812 L 69.273438 0.132812 L 69.273438 68.679688 L 0.726562 68.679688 Z M 0.726562 0.132812 " fill-opacity="1" fill-rule="nonzero"/></g></g></g></g></g></g><g clip-path="url(#2b8426b714)"><g clip-path="url(#04d6b2496f)"><g transform="matrix(1, 0, 0, 1, 340, 514)"><g clip-path="url(#1dd8d576dd)"><g clip-path="url(#62228552f0)"><g clip-path="url(#6700100a58)"><path fill="#000000" d="M 0.726562 0.257812 L 69.273438 0.257812 L 69.273438 68.800781 L 0.726562 68.800781 Z M 0.726562 0.257812 " fill-opacity="1" fill-rule="nonzero"/></g></g></g></g></g></g></g></g></svg>