<svg xmlns="http://www.w3.org/2000/svg" xmlns:xlink="http://www.w3.org/1999/xlink" width="2880" zoomAndPan="magnify" viewBox="0 0 2160 959.999988" height="1280" preserveAspectRatio="xMidYMid meet" version="1.0"><defs><g/><clipPath id="912195606a"><path d="M 0.00390625 0 L 959.90625 0 L 959.90625 960 L 0.00390625 960 Z M 0.00390625 0 " clip-rule="nonzero"/></clipPath><clipPath id="cb9d1fb781"><path d="M 480 0 C 214.90625 0 0.00390625 215.710938 0.00390625 481.796875 C 0.00390625 747.886719 214.90625 963.59375 480 963.59375 C 745.089844 963.59375 959.996094 747.886719 959.996094 481.796875 C 959.996094 215.710938 745.089844 0 480 0 Z M 480 0 " clip-rule="nonzero"/></clipPath><clipPath id="eaba78a509"><path d="M 0 0 L 960 0 L 960 960 L 0 960 Z M 0 0 " clip-rule="nonzero"/></clipPath><clipPath id="9f7c407f57"><path d="M 427.351562 161.261719 L 532.648438 161.261719 L 532.648438 266.976562 L 427.351562 266.976562 Z M 427.351562 161.261719 " clip-rule="nonzero"/></clipPath><clipPath id="589e75759b"><path d="M 480 161.261719 C 450.921875 161.261719 427.351562 184.921875 427.351562 214.109375 C 427.351562 243.300781 450.921875 266.960938 480 266.960938 C 509.078125 266.960938 532.648438 243.300781 532.648438 214.109375 C 532.648438 184.921875 509.078125 161.261719 480 161.261719 Z M 480 161.261719 " clip-rule="nonzero"/></clipPath><clipPath id="9cb8de6e7f"><path d="M 480 161.261719 C 450.921875 161.261719 427.351562 184.921875 427.351562 214.109375 C 427.351562 243.300781 450.921875 266.960938 480 266.960938 C 509.078125 266.960938 532.648438 243.300781 532.648438 214.109375 C 532.648438 184.921875 509.078125 161.261719 480 161.261719 Z M 480 161.261719 " clip-rule="nonzero"/></clipPath><clipPath id="d39c404c45"><path d="M 427.351562 696.546875 L 532.648438 696.546875 L 532.648438 802.261719 L 427.351562 802.261719 Z M 427.351562 696.546875 " clip-rule="nonzero"/></clipPath><clipPath id="0e17cabfa8"><path d="M 480 696.546875 C 450.921875 696.546875 427.351562 720.210938 427.351562 749.394531 C 427.351562 778.585938 450.921875 802.246094 480 802.246094 C 509.078125 802.246094 532.648438 778.585938 532.648438 749.394531 C 532.648438 720.210938 509.078125 696.546875 480 696.546875 Z M 480 696.546875 " clip-rule="nonzero"/></clipPath><clipPath id="7de5a50336"><path d="M 480 696.546875 C 450.921875 696.546875 427.351562 720.210938 427.351562 749.394531 C 427.351562 778.585938 450.921875 802.246094 480 802.246094 C 509.078125 802.246094 532.648438 778.585938 532.648438 749.394531 C 532.648438 720.210938 509.078125 696.546875 480 696.546875 Z M 480 696.546875 " clip-rule="nonzero"/></clipPath></defs><g clip-path="url(#912195606a)"><g clip-path="url(#cb9d1fb781)"><path stroke-linecap="butt" transform="matrix(0.987557, 0, 0, 0.987557, 0.00460577, 0.0000456)" fill="none" stroke-linejoin="miter" d="M 486.043189 -0.0000461745 C 217.609339 -0.0000461745 -0.000708333 218.428783 -0.000708333 487.867322 C -0.000708333 757.309816 217.609339 975.73469 486.043189 975.73469 C 754.473084 975.73469 972.087087 757.309816 972.087087 487.867322 C 972.087087 218.428783 754.473084 -0.0000461745 486.043189 -0.0000461745 Z M 486.043189 -0.0000461745 " stroke="#ffffff" stroke-width="97.209999" stroke-opacity="1" stroke-miterlimit="4"/></g></g><g clip-path="url(#eaba78a509)"><path stroke-linecap="butt" transform="matrix(0.696998, 0.699616, -0.699616, 0.696998, 270.603982, 236.641575)" fill="none" stroke-linejoin="miter" d="M -0.000308392 25.000124 L 651.035569 24.996622 " stroke="#ffffff" stroke-width="50" stroke-opacity="1" stroke-miterlimit="4"/><path stroke-linecap="butt" transform="matrix(0.696998, -0.699616, 0.699616, 0.696998, 235.622035, 695.919991)" fill="none" stroke-linejoin="miter" d="M -0.0013248 24.996946 L 656.482998 24.999472 " stroke="#ffffff" stroke-width="50" stroke-opacity="1" stroke-miterlimit="4"/></g><g clip-path="url(#9f7c407f57)"><g clip-path="url(#589e75759b)"><g clip-path="url(#9cb8de6e7f)"><path fill="#ffffff" d="M 427.351562 161.261719 L 532.648438 161.261719 L 532.648438 266.976562 L 427.351562 266.976562 Z M 427.351562 161.261719 " fill-opacity="1" fill-rule="nonzero"/></g></g></g><g clip-path="url(#d39c404c45)"><g clip-path="url(#0e17cabfa8)"><g clip-path="url(#7de5a50336)"><path fill="#ffffff" d="M 427.351562 696.546875 L 532.648438 696.546875 L 532.648438 802.261719 L 427.351562 802.261719 Z M 427.351562 696.546875 " fill-opacity="1" fill-rule="nonzero"/></g></g></g><g fill="#ffffff" fill-opacity="1"><g transform="translate(1017.500697, 697.499983)"><g><path d="M 37.921875 0 L 37.921875 -436.359375 L 331.953125 -436.359375 L 331.953125 -360.296875 L 130.1875 -360.296875 L 130.1875 -256.328125 L 316.828125 -256.328125 L 316.828125 -180.25 L 130.1875 -180.25 L 130.1875 -76.0625 L 332.8125 -76.0625 L 332.8125 0 Z M 37.921875 0 "/></g></g></g><g fill="#ffffff" fill-opacity="1"><g transform="translate(1385.043, 697.499983)"><g><path d="M 112.078125 -327.265625 L 172.15625 -212.859375 L 233.734375 -327.265625 L 326.84375 -327.265625 L 232.03125 -163.640625 L 329.40625 0 L 236.71875 0 L 172.15625 -113.140625 L 108.671875 0 L 14.921875 0 L 112.078125 -163.640625 L 18.328125 -327.265625 Z M 112.078125 -327.265625 "/></g></g></g><g fill="#ffffff" fill-opacity="1"><g transform="translate(1717.21592, 697.499983)"><g><path d="M 184.09375 6.390625 C 151 6.390625 122.410156 -0.675781 98.328125 -14.8125 C 74.253906 -28.945312 55.679688 -48.691406 42.609375 -74.046875 C 29.546875 -99.398438 23.015625 -128.835938 23.015625 -162.359375 C 23.015625 -196.160156 29.546875 -225.738281 42.609375 -251.09375 C 55.679688 -276.457031 74.253906 -296.203125 98.328125 -310.328125 C 122.410156 -324.460938 151 -331.53125 184.09375 -331.53125 C 217.1875 -331.53125 245.769531 -324.460938 269.84375 -310.328125 C 293.925781 -296.203125 312.5 -276.457031 325.5625 -251.09375 C 338.632812 -225.738281 345.171875 -196.160156 345.171875 -162.359375 C 345.171875 -128.835938 338.632812 -99.398438 325.5625 -74.046875 C 312.5 -48.691406 293.925781 -28.945312 269.84375 -14.8125 C 245.769531 -0.675781 217.1875 6.390625 184.09375 6.390625 Z M 184.515625 -63.921875 C 206.960938 -63.921875 223.972656 -73.296875 235.546875 -92.046875 C 247.117188 -110.796875 252.90625 -134.445312 252.90625 -163 C 252.90625 -191.550781 247.117188 -215.234375 235.546875 -234.046875 C 223.972656 -252.867188 206.960938 -262.28125 184.515625 -262.28125 C 161.648438 -262.28125 144.390625 -252.867188 132.734375 -234.046875 C 121.085938 -215.234375 115.265625 -191.550781 115.265625 -163 C 115.265625 -134.445312 121.085938 -110.796875 132.734375 -92.046875 C 144.390625 -73.296875 161.648438 -63.921875 184.515625 -63.921875 Z M 184.515625 -63.921875 "/></g></g></g></svg>