<svg xmlns="http://www.w3.org/2000/svg" xmlns:xlink="http://www.w3.org/1999/xlink" width="1000" zoomAndPan="magnify" viewBox="0 0 750 749.999995" height="1000" preserveAspectRatio="xMidYMid meet" version="1.0"><defs><clipPath id="8a3f65d47a"><path d="M 0 0 L 749.925781 0 L 749.925781 749.925781 L 0 749.925781 Z M 0 0 " clip-rule="nonzero"/></clipPath><clipPath id="cba653ae59"><path d="M 375 0 C 167.894531 0 0 167.894531 0 375 C 0 582.105469 167.894531 750 375 750 C 582.105469 750 750 582.105469 750 375 C 750 167.894531 582.105469 0 375 0 Z M 375 0 " clip-rule="nonzero"/></clipPath><clipPath id="2b81600617"><path d="M 0 0 L 750 0 L 750 750 L 0 750 Z M 0 0 " clip-rule="nonzero"/></clipPath><clipPath id="9ea6ca21f9"><path d="M 333.867188 125.511719 L 416.132812 125.511719 L 416.132812 207.78125 L 333.867188 207.78125 Z M 333.867188 125.511719 " clip-rule="nonzero"/></clipPath><clipPath id="3c2c0e5f52"><path d="M 375 125.511719 C 352.28125 125.511719 333.867188 143.929688 333.867188 166.648438 C 333.867188 189.367188 352.28125 207.78125 375 207.78125 C 397.71875 207.78125 416.132812 189.367188 416.132812 166.648438 C 416.132812 143.929688 397.71875 125.511719 375 125.511719 Z M 375 125.511719 " clip-rule="nonzero"/></clipPath><clipPath id="41699e7270"><path d="M 0.867188 0.511719 L 83.132812 0.511719 L 83.132812 82.78125 L 0.867188 82.78125 Z M 0.867188 0.511719 " clip-rule="nonzero"/></clipPath><clipPath id="291ee99fdc"><path d="M 42 0.511719 C 19.28125 0.511719 0.867188 18.929688 0.867188 41.648438 C 0.867188 64.367188 19.28125 82.78125 42 82.78125 C 64.71875 82.78125 83.132812 64.367188 83.132812 41.648438 C 83.132812 18.929688 64.71875 0.511719 42 0.511719 Z M 42 0.511719 " clip-rule="nonzero"/></clipPath><clipPath id="5eed37b8a8"><rect x="0" width="84" y="0" height="83"/></clipPath><clipPath id="cf4cf867ef"><path d="M 333.867188 542.140625 L 416.132812 542.140625 L 416.132812 624.410156 L 333.867188 624.410156 Z M 333.867188 542.140625 " clip-rule="nonzero"/></clipPath><clipPath id="dca27cd353"><path d="M 375 542.140625 C 352.28125 542.140625 333.867188 560.558594 333.867188 583.277344 C 333.867188 605.992188 352.28125 624.410156 375 624.410156 C 397.71875 624.410156 416.132812 605.992188 416.132812 583.277344 C 416.132812 560.558594 397.71875 542.140625 375 542.140625 Z M 375 542.140625 " clip-rule="nonzero"/></clipPath><clipPath id="6d4dddc113"><path d="M 0.867188 0.140625 L 83.132812 0.140625 L 83.132812 82.410156 L 0.867188 82.410156 Z M 0.867188 0.140625 " clip-rule="nonzero"/></clipPath><clipPath id="883d4432d9"><path d="M 42 0.140625 C 19.28125 0.140625 0.867188 18.558594 0.867188 41.277344 C 0.867188 63.992188 19.28125 82.410156 42 82.410156 C 64.71875 82.410156 83.132812 63.992188 83.132812 41.277344 C 83.132812 18.558594 64.71875 0.140625 42 0.140625 Z M 42 0.140625 " clip-rule="nonzero"/></clipPath><clipPath id="664a879800"><rect x="0" width="84" y="0" height="83"/></clipPath><clipPath id="679287a3db"><rect x="0" width="750" y="0" height="750"/></clipPath></defs><rect x="-75" width="900" fill="#ffffff" y="-74.999999" height="899.999994" fill-opacity="1"/><rect x="-75" width="900" fill="#ffffff" y="-74.999999" height="899.999994" fill-opacity="1"/><g transform="matrix(1, 0, 0, 1, 0, -0.000000000000042435)"><g clip-path="url(#679287a3db)"><g clip-path="url(#8a3f65d47a)"><g clip-path="url(#cba653ae59)"><path stroke-linecap="butt" transform="matrix(0.771529, 0, 0, 0.771529, 0.00000265, 0.00002)" fill="none" stroke-linejoin="miter" d="M 486.047941 -0.0000259226 C 217.612775 -0.0000259226 -0.00000343474 217.612752 -0.00000343474 486.047918 C -0.00000343474 754.483085 217.612775 972.095863 486.047941 972.095863 C 754.483107 972.095863 972.095885 754.483085 972.095885 486.047918 C 972.095885 217.612752 754.483107 -0.0000259226 486.047941 -0.0000259226 Z M 486.047941 -0.0000259226 " stroke="#000000" stroke-width="97.209595" stroke-opacity="1" stroke-miterlimit="4"/></g></g><g clip-path="url(#2b81600617)"><path stroke-linecap="butt" transform="matrix(0.545553, 0.545553, -0.545553, 0.545553, 211.384108, 184.10752)" fill="none" stroke-linejoin="miter" d="M 0.000512621 24.999014 L 649.813871 24.999014 " stroke="#000000" stroke-width="50" stroke-opacity="1" stroke-miterlimit="4"/><path stroke-linecap="butt" transform="matrix(0.545553, -0.545553, 0.545553, 0.545553, 184.106684, 541.58073)" fill="none" stroke-linejoin="miter" d="M 0.00127328 24.999785 L 655.249195 24.999785 " stroke="#000000" stroke-width="50" stroke-opacity="1" stroke-miterlimit="4"/></g><g clip-path="url(#9ea6ca21f9)"><g clip-path="url(#3c2c0e5f52)"><g transform="matrix(1, 0, 0, 1, 333, 125)"><g clip-path="url(#5eed37b8a8)"><g clip-path="url(#41699e7270)"><g clip-path="url(#291ee99fdc)"><path fill="#000000" d="M 0.867188 0.511719 L 83.132812 0.511719 L 83.132812 82.78125 L 0.867188 82.78125 Z M 0.867188 0.511719 " fill-opacity="1" fill-rule="nonzero"/></g></g></g></g></g></g><g clip-path="url(#cf4cf867ef)"><g clip-path="url(#dca27cd353)"><g transform="matrix(1, 0, 0, 1, 333, 542)"><g clip-path="url(#664a879800)"><g clip-path="url(#6d4dddc113)"><g clip-path="url(#883d4432d9)"><path fill="#000000" d="M 0.867188 0.140625 L 83.132812 0.140625 L 83.132812 82.410156 L 0.867188 82.410156 Z M 0.867188 0.140625 " fill-opacity="1" fill-rule="nonzero"/></g></g></g></g></g></g></g></g></svg>