<svg xmlns="http://www.w3.org/2000/svg" xmlns:xlink="http://www.w3.org/1999/xlink" width="1000" zoomAndPan="magnify" viewBox="0 0 750 749.999995" height="1000" preserveAspectRatio="xMidYMid meet" version="1.0"><defs><clipPath id="3720c4ff7c"><path d="M 0.00390625 0 L 749.925781 0 L 749.925781 750 L 0.00390625 750 Z M 0.00390625 0 " clip-rule="nonzero"/></clipPath><clipPath id="047d1afc41"><path d="M 375 0 C 167.894531 0 0.00390625 168.523438 0.00390625 376.402344 C 0.00390625 584.285156 167.894531 752.808594 375 752.808594 C 582.101562 752.808594 749.996094 584.285156 749.996094 376.402344 C 749.996094 168.523438 582.101562 0 375 0 Z M 375 0 " clip-rule="nonzero"/></clipPath><clipPath id="d8c6b21b1a"><path d="M 0 0 L 750 0 L 750 750 L 0 750 Z M 0 0 " clip-rule="nonzero"/></clipPath><clipPath id="1f67148b78"><path d="M 333.867188 125.984375 L 416.132812 125.984375 L 416.132812 208.574219 L 333.867188 208.574219 Z M 333.867188 125.984375 " clip-rule="nonzero"/></clipPath><clipPath id="78a267b927"><path d="M 375 125.984375 C 352.28125 125.984375 333.867188 144.46875 333.867188 167.273438 C 333.867188 190.078125 352.28125 208.5625 375 208.5625 C 397.71875 208.5625 416.132812 190.078125 416.132812 167.273438 C 416.132812 144.46875 397.71875 125.984375 375 125.984375 Z M 375 125.984375 " clip-rule="nonzero"/></clipPath><clipPath id="1cac6c9ef3"><path d="M 0.867188 0.984375 L 83.132812 0.984375 L 83.132812 83.574219 L 0.867188 83.574219 Z M 0.867188 0.984375 " clip-rule="nonzero"/></clipPath><clipPath id="dd5c36a8fc"><path d="M 42 0.984375 C 19.28125 0.984375 0.867188 19.46875 0.867188 42.273438 C 0.867188 65.078125 19.28125 83.5625 42 83.5625 C 64.71875 83.5625 83.132812 65.078125 83.132812 42.273438 C 83.132812 19.46875 64.71875 0.984375 42 0.984375 Z M 42 0.984375 " clip-rule="nonzero"/></clipPath><clipPath id="c84202ffdb"><rect x="0" width="84" y="0" height="84"/></clipPath><clipPath id="2148c5bad7"><path d="M 333.867188 544.175781 L 416.132812 544.175781 L 416.132812 626.765625 L 333.867188 626.765625 Z M 333.867188 544.175781 " clip-rule="nonzero"/></clipPath><clipPath id="95938e328f"><path d="M 375 544.175781 C 352.28125 544.175781 333.867188 562.664062 333.867188 585.464844 C 333.867188 608.269531 352.28125 626.753906 375 626.753906 C 397.71875 626.753906 416.132812 608.269531 416.132812 585.464844 C 416.132812 562.664062 397.71875 544.175781 375 544.175781 Z M 375 544.175781 " clip-rule="nonzero"/></clipPath><clipPath id="0ddae61e5f"><path d="M 0.867188 0.175781 L 83.132812 0.175781 L 83.132812 82.765625 L 0.867188 82.765625 Z M 0.867188 0.175781 " clip-rule="nonzero"/></clipPath><clipPath id="1c056a3604"><path d="M 42 0.175781 C 19.28125 0.175781 0.867188 18.664062 0.867188 41.464844 C 0.867188 64.269531 19.28125 82.753906 42 82.753906 C 64.71875 82.753906 83.132812 64.269531 83.132812 41.464844 C 83.132812 18.664062 64.71875 0.175781 42 0.175781 Z M 42 0.175781 " clip-rule="nonzero"/></clipPath><clipPath id="fac9a585aa"><rect x="0" width="84" y="0" height="83"/></clipPath><clipPath id="d1c6c89093"><rect x="0" width="750" y="0" height="750"/></clipPath></defs><g transform="matrix(1, 0, 0, 1, 0, -0.000000000000042435)"><g clip-path="url(#d1c6c89093)"><g clip-path="url(#3720c4ff7c)"><g clip-path="url(#047d1afc41)"><path stroke-linecap="butt" transform="matrix(0.771529, 0, 0, 0.771529, 0.00358815, 0.00002)" fill="none" stroke-linejoin="miter" d="M 486.043369 -0.0000259226 C 217.608161 -0.0000259226 0.000412304 218.427929 0.000412304 487.865611 C 0.000412304 757.308356 217.608161 975.736311 486.043369 975.736311 C 754.473514 975.736311 972.086326 757.308356 972.086326 487.865611 C 972.086326 218.427929 754.473514 -0.0000259226 486.043369 -0.0000259226 Z M 486.043369 -0.0000259226 " stroke="#ffffff" stroke-width="97.209595" stroke-opacity="1" stroke-miterlimit="4"/></g></g><g clip-path="url(#d8c6b21b1a)"><path stroke-linecap="butt" transform="matrix(0.54453, 0.546575, -0.546575, 0.54453, 211.409347, 184.876228)" fill="none" stroke-linejoin="miter" d="M -0.0000823602 24.997885 L 651.035288 24.998756 " stroke="#ffffff" stroke-width="50" stroke-opacity="1" stroke-miterlimit="4"/><path stroke-linecap="butt" transform="matrix(0.54453, -0.546575, 0.546575, 0.54453, 184.079715, 543.687522)" fill="none" stroke-linejoin="miter" d="M -0.00173951 24.998272 L 656.482519 25.000451 " stroke="#ffffff" stroke-width="50" stroke-opacity="1" stroke-miterlimit="4"/></g><g clip-path="url(#1f67148b78)"><g clip-path="url(#78a267b927)"><g transform="matrix(1, 0, 0, 1, 333, 125)"><g clip-path="url(#c84202ffdb)"><g clip-path="url(#1cac6c9ef3)"><g clip-path="url(#dd5c36a8fc)"><path fill="#ffffff" d="M 0.867188 0.984375 L 83.132812 0.984375 L 83.132812 83.574219 L 0.867188 83.574219 Z M 0.867188 0.984375 " fill-opacity="1" fill-rule="nonzero"/></g></g></g></g></g></g><g clip-path="url(#2148c5bad7)"><g clip-path="url(#95938e328f)"><g transform="matrix(1, 0, 0, 1, 333, 544)"><g clip-path="url(#fac9a585aa)"><g clip-path="url(#0ddae61e5f)"><g clip-path="url(#1c056a3604)"><path fill="#ffffff" d="M 0.867188 0.175781 L 83.132812 0.175781 L 83.132812 82.765625 L 0.867188 82.765625 Z M 0.867188 0.175781 " fill-opacity="1" fill-rule="nonzero"/></g></g></g></g></g></g></g></g></svg>