<svg xmlns="http://www.w3.org/2000/svg" xmlns:xlink="http://www.w3.org/1999/xlink" width="2880" zoomAndPan="magnify" viewBox="0 0 2160 959.999988" height="1280" preserveAspectRatio="xMidYMid meet" version="1.0"><defs><g/><clipPath id="5dde040736"><rect x="0" width="1426" y="0" height="959"/></clipPath></defs><rect x="-216" width="2592" fill="#ffffff" y="-95.999999" height="1151.999986" fill-opacity="1"/><rect x="-216" width="2592" fill="#ffffff" y="-95.999999" height="1151.999986" fill-opacity="1"/><g transform="matrix(1, 0, 0, 1, 367, -0.000000000000026978)"><g clip-path="url(#5dde040736)"><g fill="#000000" fill-opacity="1"><g transform="translate(1.05263, 770.000038)"><g><path d="M 50.5625 0 L 50.5625 -581.8125 L 442.609375 -581.8125 L 442.609375 -480.390625 L 173.578125 -480.390625 L 173.578125 -341.765625 L 422.4375 -341.765625 L 422.4375 -240.34375 L 173.578125 -240.34375 L 173.578125 -101.421875 L 443.75 -101.421875 L 443.75 0 Z M 50.5625 0 "/></g></g></g><g fill="#000000" fill-opacity="1"><g transform="translate(491.109073, 770.000038)"><g><path d="M 149.4375 -436.359375 L 229.546875 -283.8125 L 311.640625 -436.359375 L 435.796875 -436.359375 L 309.375 -218.1875 L 439.203125 0 L 315.625 0 L 229.546875 -150.859375 L 144.890625 0 L 19.890625 0 L 149.4375 -218.1875 L 24.4375 -436.359375 Z M 149.4375 -436.359375 "/></g></g></g><g fill="#000000" fill-opacity="1"><g transform="translate(934.006335, 770.000038)"><g><path d="M 245.453125 8.515625 C 201.328125 8.515625 163.210938 -0.90625 131.109375 -19.75 C 99.003906 -38.59375 74.238281 -64.914062 56.8125 -98.71875 C 39.394531 -132.53125 30.6875 -171.785156 30.6875 -216.484375 C 30.6875 -261.554688 39.394531 -300.992188 56.8125 -334.796875 C 74.238281 -368.609375 99.003906 -394.9375 131.109375 -413.78125 C 163.210938 -432.625 201.328125 -442.046875 245.453125 -442.046875 C 289.578125 -442.046875 327.691406 -432.625 359.796875 -413.78125 C 391.898438 -394.9375 416.664062 -368.609375 434.09375 -334.796875 C 451.519531 -300.992188 460.234375 -261.554688 460.234375 -216.484375 C 460.234375 -171.785156 451.519531 -132.53125 434.09375 -98.71875 C 416.664062 -64.914062 391.898438 -38.59375 359.796875 -19.75 C 327.691406 -0.90625 289.578125 8.515625 245.453125 8.515625 Z M 246.015625 -85.234375 C 275.941406 -85.234375 298.625 -97.734375 314.0625 -122.734375 C 329.5 -147.734375 337.21875 -179.265625 337.21875 -217.328125 C 337.21875 -255.398438 329.5 -286.984375 314.0625 -312.078125 C 298.625 -337.171875 275.941406 -349.71875 246.015625 -349.71875 C 215.523438 -349.71875 192.515625 -337.171875 176.984375 -312.078125 C 161.453125 -286.984375 153.6875 -255.398438 153.6875 -217.328125 C 153.6875 -179.265625 161.453125 -147.734375 176.984375 -122.734375 C 192.515625 -97.734375 215.523438 -85.234375 246.015625 -85.234375 Z M 246.015625 -85.234375 "/></g></g></g></g></g></svg>